<svg width="278" height="168" viewBox="0 0 278 168" fill="none" xmlns="http://www.w3.org/2000/svg">
<g clip-path="url(#clip0_5_161)">
<path d="M275.453 28.9548H229.218V56.2882H275.453V28.9548Z" fill="#00F2B2"/>
<path d="M275.453 83.6216H229.218V110.955H275.453V83.6216Z" fill="#00F2B2"/>
<path d="M275.453 138.404H229.218V165.738H275.453V138.404Z" fill="#00F2B2"/>
<path d="M138.902 30.5762H2.74271C1.1754 30.5762 0 29.8815 0 28.9549V1.62143C0 0.694875 1.1754 0 2.74271 0H92.6667C119.703 0 141.645 12.9718 141.645 28.9549C141.645 29.8815 140.469 30.5762 138.902 30.5762ZM5.48554 27.3334H136.159C134.788 13.8983 115.784 3.24294 92.6667 3.24294H5.48554V27.3334Z" fill="white"/>
<path d="M275.257 57.9096H185.333C158.297 57.9096 136.355 44.9378 136.355 28.9548C136.355 28.0283 137.531 27.3333 139.098 27.3333H275.257C276.824 27.3333 278 28.0283 278 28.9548V56.2882C278 57.2147 276.629 57.9096 275.257 57.9096ZM141.841 30.5763C143.212 44.0113 162.215 54.6666 185.333 54.6666H272.514V30.5763H141.841Z" fill="white"/>
<path d="M138.902 85.2431H2.74271C1.1754 85.2431 0 84.5482 0 83.6217V56.2883C0 55.3618 1.1754 54.6667 2.74271 54.6667H92.6667C119.703 54.6667 141.645 67.6385 141.645 83.6217C141.645 84.5482 140.469 85.2431 138.902 85.2431ZM5.48554 82.0002H136.159C134.788 68.5651 115.784 57.9098 92.6667 57.9098H5.48554V82.0002Z" fill="white"/>
<path d="M275.257 112.692H185.333C158.297 112.692 136.355 99.7205 136.355 83.7374C136.355 82.8109 137.531 82.116 139.098 82.116H275.257C276.824 82.116 278 82.8109 278 83.7374V111.071C278 111.882 276.629 112.692 275.257 112.692ZM141.841 85.2431C143.212 98.6782 162.215 109.334 185.333 109.334H272.514V85.2431H141.841Z" fill="white"/>
<path d="M138.902 140.026H2.74271C1.1754 140.026 0 139.33 0 138.404V111.071C0 110.144 1.1754 109.449 2.74271 109.449H92.6667C119.703 109.449 141.645 122.421 141.645 138.404C141.645 139.215 140.469 140.026 138.902 140.026ZM5.48554 136.782H136.159C134.788 123.347 115.784 112.692 92.6667 112.692H5.48554V136.782Z" fill="white"/>
<path d="M275.257 167.36H185.333C158.297 167.36 136.355 154.387 136.355 138.404C136.355 137.478 137.531 136.782 139.098 136.782H275.257C276.824 136.782 278 137.478 278 138.404V165.738C278 166.665 276.629 167.36 275.257 167.36ZM141.841 140.026C143.212 153.461 162.215 164.117 185.333 164.117H272.514V140.026H141.841Z" fill="white"/>
</g>
<defs>
<clipPath id="clip0_5_161">
<rect width="278" height="168" fill="white"/>
</clipPath>
</defs>
</svg>
