<svg width="32" height="32" viewBox="0 0 32 32" fill="none" xmlns="http://www.w3.org/2000/svg">
<path d="M3.48766 12.4252L10.8002 5.11266C10.9526 4.9602 11.1594 4.87455 11.375 4.87455C11.5906 4.87455 11.7974 4.9602 11.9498 5.11266C12.1023 5.26512 12.188 5.4719 12.188 5.6875C12.188 5.90311 12.1023 6.10989 11.9498 6.26235L6.02367 12.1875L21.9375 12.1875C22.153 12.1875 22.3597 12.2731 22.512 12.4255C22.6644 12.5779 22.75 12.7845 22.75 13C22.75 13.2155 22.6644 13.4222 22.512 13.5745C22.3597 13.7269 22.153 13.8125 21.9375 13.8125L6.02367 13.8125L11.9498 19.7377C12.1023 19.8901 12.188 20.0969 12.188 20.3125C12.188 20.5281 12.1023 20.7349 11.9498 20.8874C11.7974 21.0398 11.5906 21.1255 11.375 21.1255C11.1594 21.1255 10.9526 21.0398 10.8002 20.8874L3.48766 13.5749C3.41211 13.4994 3.35218 13.4098 3.3113 13.3111C3.27041 13.2125 3.24936 13.1068 3.24936 13C3.24936 12.8932 3.27041 12.7875 3.3113 12.6889C3.35218 12.5902 3.41211 12.5006 3.48766 12.4252Z" fill="black"/>
</svg>
