<svg width="151" height="239" viewBox="0 0 151 239" fill="none" xmlns="http://www.w3.org/2000/svg">
<path d="M75.5 16.6744C39.5431 16.6744 14.1562 47.1664 14.1562 84.6949C14.1562 101.77 20.1208 113.286 27.6047 124.269C29.2279 126.659 30.8795 128.96 32.5783 131.328L33.4842 132.573C35.4661 135.352 37.5141 138.22 39.4299 141.177C43.2426 147.08 46.8194 153.716 48.8202 161.564C49.3102 163.663 49.0839 165.904 48.1897 167.809C47.2954 169.714 45.8042 171.131 44.0345 171.758C42.2648 172.386 40.3572 172.173 38.7191 171.165C37.081 170.157 35.8424 168.435 35.2679 166.366C33.9656 161.253 31.5213 156.473 28.1615 151.281C26.3881 148.581 24.5566 145.935 22.6689 143.344L21.8006 142.122C20.1019 139.765 18.3088 137.275 16.5628 134.707C8.21063 122.457 0 107.283 0 84.6838C0 37.384 32.2291 0 75.5 0C118.771 0 151 37.3729 151 84.6949C151 107.283 142.789 122.457 134.437 134.718C132.691 137.275 130.898 139.765 129.199 142.133L128.331 143.344C126.349 146.101 124.509 148.691 122.839 151.281C119.479 156.473 117.034 161.264 115.732 166.366C115.13 168.396 113.886 170.074 112.259 171.05C110.633 172.026 108.749 172.226 107.001 171.606C105.253 170.987 103.775 169.598 102.875 167.727C101.975 165.856 101.723 163.649 102.17 161.564C104.181 153.716 107.757 147.08 111.58 141.177C113.486 138.22 115.534 135.352 117.525 132.573L118.422 131.328C120.121 128.96 121.772 126.659 123.395 124.28C130.879 113.275 136.844 101.77 136.844 84.6949C136.844 47.1664 111.457 16.6744 75.5 16.6744ZM44.8281 188.977H106.172C108.049 188.977 109.849 189.855 111.177 191.419C112.504 192.982 113.25 195.103 113.25 197.314C113.25 199.525 112.504 201.646 111.177 203.209C109.849 204.773 108.049 205.651 106.172 205.651H44.8281C42.9509 205.651 41.1505 204.773 39.8231 203.209C38.4957 201.646 37.75 199.525 37.75 197.314C37.75 195.103 38.4957 192.982 39.8231 191.419C41.1505 189.855 42.9509 188.977 44.8281 188.977ZM51.9062 230.663C51.9062 228.452 52.652 226.331 53.9794 224.767C55.3068 223.204 57.1071 222.326 58.9844 222.326H92.0156C93.8929 222.326 95.6932 223.204 97.0206 224.767C98.348 226.331 99.0938 228.452 99.0938 230.663C99.0938 232.874 98.348 234.995 97.0206 236.558C95.6932 238.122 93.8929 239 92.0156 239H58.9844C57.1071 239 55.3068 238.122 53.9794 236.558C52.652 234.995 51.9062 232.874 51.9062 230.663Z" fill="white"/>
</svg>
