<svg width="378" height="381" viewBox="0 0 378 381" fill="none" xmlns="http://www.w3.org/2000/svg">
<g clip-path="url(#clip0_4_102)">
<path d="M282.899 373.665L282.899 96.6123L5.9775 96.6123L5.97749 373.665L282.899 373.665Z" fill="#00F2B2"/>
<path d="M95.2109 96.612L95.2109 2.72441L101.078 2.72441L101.077 93.6783L375.067 93.6784L375.067 99.5463L98.1446 99.5463C96.6783 99.5463 95.2109 98.2887 95.2109 96.612Z" fill="black"/>
<path d="M1.57694 2.93394C1.57694 2.51479 1.57693 2.09565 1.7885 1.88608C2.20599 0.838223 3.25253 1.41368e-05 4.51065 1.41918e-05L375.067 3.03894e-05C376.743 3.04626e-05 378 1.25738 378 2.93396L378 378.065C378 379.324 377.372 380.371 376.115 380.791C375.067 381.209 373.811 381 372.973 380.162L2.20598 5.02964C1.78848 4.40093 1.57694 3.56265 1.57694 2.93394ZM372.135 5.868L11.4247 5.86798L372.135 370.942L372.135 5.868Z" fill="black"/>
<path d="M377.239 94.7576L284.945 0.971889L280.765 5.08886L373.06 98.8746L377.239 94.7576Z" fill="black"/>
<path d="M377.165 188.385L192.576 0.813072L188.396 4.93003L372.985 192.501L377.165 188.385Z" fill="black"/>
<path d="M285.832 284.387L285.832 2.93387L279.967 2.93387L279.967 284.387L285.832 284.387Z" fill="black"/>
<path d="M187.59 190.5L187.59 2.93386L193.455 2.93386L193.455 187.566L375.067 187.566L375.067 193.434L190.522 193.434C188.846 193.434 187.59 192.176 187.59 190.5Z" fill="black"/>
<path d="M375.067 287.322L375.067 281.454L282.69 281.454L282.69 287.322L375.067 287.322Z" fill="black"/>
<path d="M377.299 282.273L98.9683 0.881976L94.7991 5.0095L373.13 286.402L377.299 282.273Z" fill="black"/>
</g>
<defs>
<clipPath id="clip0_4_102">
<rect width="381" height="378" fill="white" transform="translate(378 3.05176e-05) rotate(90)"/>
</clipPath>
</defs>
</svg>
